<svg id="svg" version="1.1" xmlns="http://www.w3.org/2000/svg" xmlns:xlink="http://www.w3.org/1999/xlink" width="400" height="400" viewBox="0, 0, 400,400"><g id="svgg"><path id="path0" d="M77.101 47.370 C 74.458 48.313,72.060 50.421,70.752 52.952 L 69.536 55.304 69.469 77.152 L 69.401 99.000 70.351 101.400 C 71.787 105.028,73.691 106.757,77.771 108.134 C 81.162 109.279,319.847 109.145,322.917 107.997 C 326.928 106.496,329.242 103.765,330.401 99.164 C 330.715 97.913,330.814 90.974,330.726 76.186 L 330.600 55.000 329.434 53.000 C 327.907 50.379,325.893 48.615,323.285 47.613 C 320.572 46.570,80.007 46.333,77.101 47.370 M101.238 60.106 C 104.182 62.106,103.755 67.076,100.508 68.617 C 98.313 69.658,83.669 69.309,82.158 68.179 C 78.955 65.785,79.943 60.258,83.715 59.466 C 86.368 58.909,100.221 59.414,101.238 60.106 M130.161 59.758 C 133.694 61.234,133.841 66.748,130.394 68.515 C 128.361 69.558,113.560 69.381,111.962 68.294 C 108.774 66.128,109.632 60.710,113.333 59.639 C 115.477 59.018,128.613 59.111,130.161 59.758 M160.957 60.359 C 163.157 62.428,163.235 65.320,161.155 67.652 L 159.952 69.000 151.351 69.122 L 142.750 69.244 141.175 67.669 C 138.492 64.986,139.322 60.796,142.800 59.469 C 144.880 58.676,159.953 59.414,160.957 60.359 M300.531 63.582 C 309.474 67.030,312.395 78.627,306.502 87.285 C 300.800 95.662,284.939 93.998,280.547 84.562 C 274.409 71.377,286.855 58.310,300.531 63.582 M101.110 73.602 C 103.659 75.156,104.022 78.858,101.840 81.040 L 100.480 82.400 94.540 82.460 C 84.575 82.560,83.709 82.509,82.441 81.760 C 79.219 79.857,79.510 74.871,82.930 73.384 C 85.167 72.411,99.437 72.582,101.110 73.602 M129.682 73.216 C 134.298 74.498,133.762 81.549,128.989 82.337 C 128.115 82.482,124.005 82.510,119.855 82.400 L 112.310 82.200 111.155 80.815 C 109.231 78.509,109.812 74.779,112.305 73.426 C 113.626 72.710,127.265 72.545,129.682 73.216 M160.554 73.635 C 163.165 75.689,163.403 78.728,161.136 81.066 L 159.843 82.400 151.150 82.400 L 142.457 82.400 141.028 81.053 C 138.908 79.053,138.954 76.552,141.153 74.353 L 142.706 72.800 151.099 72.800 C 159.005 72.800,159.554 72.849,160.554 73.635 M101.807 87.780 C 103.889 89.987,103.807 93.041,101.614 95.000 C 100.399 96.085,85.468 96.457,83.087 95.462 C 79.538 93.979,79.178 88.773,82.497 86.930 C 83.140 86.573,85.865 86.424,91.953 86.414 L 100.506 86.400 101.807 87.780 M130.995 87.267 C 133.448 89.197,133.594 92.738,131.309 94.886 C 130.355 95.782,130.160 95.800,121.335 95.800 L 112.334 95.800 111.167 94.494 C 109.417 92.535,109.491 89.796,111.347 87.828 L 112.694 86.400 121.293 86.400 C 129.508 86.400,129.941 86.439,130.995 87.267 M161.094 87.700 C 163.311 90.004,163.169 92.945,160.743 94.987 L 159.539 96.000 151.031 96.000 L 142.523 96.000 141.061 94.581 C 138.959 92.539,138.940 89.887,141.013 87.813 L 142.427 86.400 151.135 86.400 L 159.843 86.400 161.094 87.700 M75.376 140.628 C 72.007 142.653,71.470 143.262,70.374 146.300 L 69.400 149.000 69.413 169.800 C 69.429 195.995,69.464 196.166,75.545 199.300 L 78.456 200.800 200.128 200.800 L 321.800 200.799 324.223 199.653 C 330.416 196.723,330.518 196.303,330.699 172.804 C 330.913 145.168,330.595 143.553,324.311 140.362 L 322.023 139.200 199.888 139.200 L 77.753 139.200 75.376 140.628 M99.927 151.905 C 103.992 153.290,104.452 158.683,100.676 160.679 C 99.617 161.238,98.137 161.357,91.990 161.377 C 82.339 161.407,81.355 161.040,80.227 156.985 C 79.756 155.294,81.604 152.668,83.800 151.906 C 86.437 150.992,97.244 150.991,99.927 151.905 M129.286 151.684 C 133.341 152.868,134.170 158.649,130.563 160.592 C 128.561 161.670,114.527 161.738,112.524 160.679 C 110.768 159.751,110.000 158.511,110.001 156.611 C 110.004 153.698,111.349 152.314,115.000 151.466 C 116.612 151.092,127.844 151.263,129.286 151.684 M160.271 152.228 C 163.108 154.311,163.417 157.663,160.974 159.853 C 158.247 162.297,143.578 162.257,140.972 159.799 C 138.359 157.335,139.692 152.730,143.341 151.618 C 145.941 150.826,159.002 151.297,160.271 152.228 M299.444 155.465 C 302.614 156.249,306.562 159.650,308.119 162.939 C 311.614 170.320,309.570 177.752,302.553 183.186 C 299.326 185.685,290.147 185.639,286.043 183.103 C 284.754 182.306,284.032 181.597,281.345 178.490 C 278.820 175.571,278.176 169.171,279.945 164.595 C 283.041 156.591,290.284 153.200,299.444 155.465 M101.068 165.808 C 104.032 167.750,104.002 172.235,101.013 174.058 C 99.338 175.079,84.712 175.175,82.612 174.179 C 79.067 172.497,79.483 166.770,83.255 165.316 C 85.276 164.537,99.738 164.937,101.068 165.808 M130.664 165.691 C 133.618 167.308,133.718 171.949,130.841 173.885 C 128.864 175.216,114.304 175.300,112.190 173.994 C 108.419 171.663,109.462 166.018,113.814 165.206 C 117.122 164.590,129.290 164.940,130.664 165.691 M160.375 165.787 C 163.121 167.207,163.438 171.042,161.008 173.472 L 159.680 174.800 151.053 174.800 L 142.427 174.800 141.013 173.387 C 137.876 170.250,139.909 165.456,144.541 165.065 C 149.342 164.661,159.052 165.103,160.375 165.787 M99.573 178.792 C 103.894 180.031,104.654 185.807,100.760 187.820 C 98.831 188.818,84.294 188.647,82.611 187.607 C 79.021 185.388,79.710 180.004,83.733 178.839 C 85.454 178.341,97.871 178.304,99.573 178.792 M130.843 179.311 C 133.585 181.169,133.704 185.417,131.067 187.295 C 128.796 188.912,114.342 189.048,111.962 187.475 C 108.468 185.166,109.691 179.631,113.885 178.767 C 117.003 178.125,129.694 178.532,130.843 179.311 M160.690 179.520 C 163.263 181.355,163.388 184.707,160.972 187.054 L 159.585 188.400 151.146 188.400 L 142.706 188.400 141.153 186.847 C 138.236 183.930,139.703 179.224,143.702 178.671 C 148.205 178.048,159.412 178.609,160.690 179.520 M78.133 231.582 C 73.462 232.701,70.392 236.343,69.547 241.768 C 68.918 245.812,69.275 283.930,69.956 285.400 C 70.262 286.060,70.764 287.181,71.070 287.891 C 71.645 289.218,73.006 290.419,75.800 292.060 L 77.400 293.000 199.200 293.104 C 335.775 293.221,323.457 293.497,326.847 290.238 C 327.811 289.310,328.800 288.112,329.045 287.576 C 330.889 283.528,330.800 284.779,330.800 262.969 C 330.800 238.416,330.788 238.317,327.321 234.905 C 326.148 233.750,324.516 232.489,323.694 232.103 C 322.104 231.355,81.215 230.844,78.133 231.582 M100.561 244.558 C 103.634 245.842,104.272 249.895,101.772 252.253 L 100.343 253.600 92.132 253.600 C 82.697 253.600,81.761 253.374,80.610 250.822 C 79.535 248.439,80.676 245.313,82.955 244.392 C 84.452 243.787,99.046 243.925,100.561 244.558 M130.800 244.701 C 133.385 245.992,133.563 251.303,131.072 252.821 C 129.391 253.846,114.347 254.007,112.440 253.020 C 109.157 251.323,109.211 246.027,112.526 244.585 C 114.596 243.685,128.948 243.776,130.800 244.701 M160.809 244.807 C 163.195 246.506,163.331 250.286,161.083 252.394 L 159.800 253.596 151.113 253.598 L 142.427 253.600 141.013 252.187 C 138.942 250.116,138.949 247.309,141.028 245.347 L 142.457 244.000 151.067 244.000 C 159.059 244.000,159.758 244.058,160.809 244.807 M299.800 248.045 C 310.462 251.528,313.223 268.481,304.074 274.298 C 303.483 274.674,302.908 275.106,302.796 275.259 C 301.234 277.384,292.714 278.059,288.400 276.400 C 269.777 269.237,280.794 241.836,299.800 248.045 M101.170 258.300 C 103.948 260.327,104.004 264.419,101.279 266.268 C 99.641 267.379,84.879 267.577,82.800 266.515 C 78.918 264.532,79.764 258.181,84.000 257.509 C 87.330 256.981,100.173 257.572,101.170 258.300 M126.696 257.600 C 130.909 257.600,132.800 258.957,132.800 261.980 C 132.800 266.455,131.215 267.201,121.713 267.198 C 111.702 267.195,110.005 266.457,110.001 262.106 C 109.998 258.358,113.872 256.797,121.556 257.451 C 122.522 257.533,124.835 257.600,126.696 257.600 M160.917 258.406 C 163.179 260.186,163.208 263.925,160.975 266.024 C 159.951 266.987,159.825 267.002,151.344 267.122 L 142.750 267.244 141.175 265.669 C 138.898 263.392,139.130 260.015,141.687 258.224 C 143.210 257.158,159.526 257.312,160.917 258.406 M100.973 271.579 C 104.095 273.637,103.944 278.683,100.719 280.044 C 98.606 280.935,83.671 280.801,82.262 279.878 C 79.128 277.824,79.518 272.868,82.930 271.384 C 85.129 270.427,99.461 270.582,100.973 271.579 M130.838 271.706 C 133.703 273.652,133.396 278.759,130.339 280.025 C 128.495 280.789,114.313 280.816,112.519 280.060 C 109.038 278.590,109.043 272.927,112.526 271.370 C 114.550 270.465,129.414 270.738,130.838 271.706 M160.957 271.959 C 163.239 274.105,163.148 277.928,160.774 279.618 C 157.890 281.672,143.201 281.174,140.974 278.947 C 138.573 276.547,139.539 272.385,142.800 271.075 C 144.804 270.270,159.945 271.007,160.957 271.959 " stroke="none" fill="#489ed3" fill-rule="evenodd"></path><path id="path1" d="M77.400 37.853 C 68.868 39.606,63.503 44.461,60.852 52.828 C 60.537 53.823,60.400 61.310,60.400 77.477 L 60.400 100.698 61.380 103.699 C 62.567 107.335,64.033 109.586,66.929 112.214 C 73.424 118.109,66.883 117.599,136.095 117.606 C 172.185 117.610,194.830 117.757,195.200 117.991 C 195.964 118.473,196.318 127.858,195.621 129.160 L 195.179 129.987 135.489 130.106 C 78.017 130.220,75.726 130.252,73.800 130.983 C 70.066 132.399,66.735 134.858,64.608 137.769 C 63.952 138.666,63.187 139.638,62.908 139.929 C 62.629 140.219,62.400 140.700,62.400 140.996 C 62.400 141.293,62.147 142.045,61.838 142.668 C 60.518 145.331,60.400 147.605,60.400 170.444 C 60.400 193.731,60.590 196.929,62.026 197.816 C 62.232 197.943,62.400 198.298,62.400 198.604 C 62.400 200.221,66.094 204.422,69.517 206.697 C 74.569 210.055,68.653 209.769,135.689 209.898 L 195.179 210.013 195.621 210.840 C 196.318 212.142,195.964 221.527,195.200 222.009 C 194.830 222.243,171.996 222.390,135.586 222.394 C 78.371 222.400,76.506 222.423,74.386 223.170 C 67.866 225.467,63.006 230.435,61.056 236.800 C 60.425 238.861,60.213 284.875,60.825 287.000 C 61.693 290.011,62.568 291.801,64.277 294.061 C 66.535 297.046,71.242 300.800,72.729 300.800 C 73.110 300.800,73.867 301.115,74.411 301.500 C 75.341 302.158,78.990 302.206,135.200 302.306 C 190.623 302.403,195.037 302.460,195.500 303.082 C 196.472 304.386,196.194 333.006,195.200 334.000 C 194.760 334.440,194.220 334.800,194.001 334.800 C 192.434 334.800,186.800 340.440,186.800 342.009 C 186.800 343.623,187.397 343.603,136.355 343.703 C 81.989 343.810,85.448 343.634,84.218 346.361 C 83.466 348.028,83.802 349.504,85.296 351.100 L 86.139 352.000 135.581 352.000 C 189.619 352.000,186.427 351.858,186.921 354.286 C 188.136 360.249,199.996 364.362,206.388 361.036 C 209.032 359.660,213.018 355.611,213.347 353.967 C 213.748 351.960,212.692 352.000,264.730 352.000 L 313.808 352.000 314.869 351.017 C 316.927 349.108,316.579 346.122,314.109 344.504 C 313.100 343.843,310.030 343.795,263.679 343.717 C 212.713 343.631,213.200 343.647,213.200 342.073 C 213.200 340.290,209.674 336.575,206.495 335.008 L 204.391 333.971 204.495 318.285 L 204.600 302.600 264.600 302.400 C 320.767 302.213,324.682 302.155,325.880 301.500 C 326.584 301.115,327.362 300.800,327.608 300.800 C 330.591 300.800,337.436 292.900,339.045 287.600 C 339.815 285.063,339.822 239.902,339.052 237.200 C 337.613 232.147,332.865 226.036,329.565 224.989 C 329.144 224.855,328.800 224.593,328.800 224.405 C 328.800 224.217,328.215 223.938,327.500 223.786 C 326.785 223.633,325.947 223.303,325.639 223.054 C 325.228 222.722,308.930 222.546,264.972 222.400 C 231.914 222.290,204.776 222.109,204.665 221.998 C 204.259 221.592,204.220 210.820,204.623 210.417 C 204.890 210.150,225.147 209.974,264.414 209.898 C 322.826 209.786,323.837 209.770,326.074 208.976 C 331.620 207.006,335.805 203.012,338.413 197.200 L 339.400 195.000 339.523 171.600 C 339.661 145.164,339.384 142.178,336.521 139.271 C 336.234 138.981,336.000 138.612,336.000 138.451 C 336.000 138.077,331.957 133.955,330.958 133.311 C 329.864 132.606,328.064 131.740,326.000 130.926 C 324.314 130.262,320.418 130.203,264.400 130.003 C 231.510 129.885,204.550 129.746,204.489 129.694 C 204.428 129.642,204.428 126.945,204.489 123.700 L 204.600 117.800 264.200 117.594 C 327.553 117.375,325.288 117.445,328.818 115.604 C 330.470 114.742,333.771 111.911,335.018 110.286 C 335.668 109.439,336.494 108.420,336.852 108.021 C 337.211 107.622,337.931 106.149,338.452 104.748 L 339.400 102.200 339.521 78.400 C 339.609 61.201,339.514 54.156,339.178 53.000 C 338.421 50.390,337.490 48.280,336.516 46.962 C 336.012 46.281,335.600 45.613,335.600 45.477 C 335.600 44.378,329.536 39.922,326.319 38.657 L 324.200 37.823 201.200 37.756 C 133.550 37.719,77.840 37.763,77.400 37.853 M324.200 47.141 C 326.772 48.352,328.602 50.093,329.936 52.600 L 331.000 54.600 331.130 76.200 C 331.296 103.686,331.065 104.792,324.480 108.065 L 322.600 109.000 200.000 109.000 C 86.256 109.000,77.299 108.952,76.000 108.331 C 73.646 107.207,71.435 105.005,70.188 102.544 L 69.000 100.200 69.000 77.600 L 69.000 55.000 70.120 52.827 C 71.918 49.339,75.116 46.907,78.576 46.394 C 79.689 46.230,134.960 46.118,201.400 46.147 L 322.200 46.200 324.200 47.141 M83.723 60.041 C 80.067 61.099,79.854 66.744,83.414 68.232 C 85.761 69.212,98.076 69.028,100.242 67.980 C 103.878 66.219,103.541 61.228,99.708 60.080 C 97.817 59.513,85.650 59.484,83.723 60.041 M112.992 60.343 C 109.043 62.149,109.829 67.403,114.200 68.412 C 117.406 69.152,128.256 68.890,129.937 68.032 C 133.312 66.310,133.258 61.606,129.848 60.202 C 127.705 59.320,114.998 59.426,112.992 60.343 M143.721 59.864 C 140.221 60.365,138.968 64.752,141.578 67.363 L 142.815 68.600 149.926 68.737 C 154.356 68.823,157.663 68.706,158.698 68.427 C 162.339 67.447,163.290 63.164,160.432 60.617 C 159.558 59.838,147.652 59.302,143.721 59.864 M290.465 63.361 C 289.291 63.658,287.813 64.283,287.181 64.751 C 286.549 65.218,285.866 65.600,285.663 65.600 C 284.345 65.600,280.658 71.105,279.997 74.058 C 277.519 85.128,288.339 95.564,298.400 91.807 C 299.390 91.437,300.626 91.034,301.147 90.912 C 302.622 90.564,306.607 86.397,307.773 83.981 C 310.603 78.120,308.770 69.761,303.907 66.347 C 303.188 65.842,302.420 65.227,302.200 64.980 C 300.831 63.441,293.916 62.487,290.465 63.361 M295.881 71.650 C 298.327 72.633,298.858 72.999,299.614 74.222 C 302.238 78.468,299.367 83.591,294.360 83.597 C 287.315 83.606,285.576 74.162,292.212 71.932 C 294.690 71.100,294.541 71.111,295.881 71.650 M83.714 73.481 C 80.592 74.085,79.822 79.248,82.552 81.262 C 83.698 82.107,83.616 82.101,92.494 82.046 L 99.987 82.000 101.176 80.900 C 103.360 78.879,102.939 74.980,100.400 73.711 C 99.440 73.232,85.963 73.045,83.714 73.481 M112.705 73.814 C 110.276 75.159,109.740 78.239,111.555 80.415 L 112.710 81.800 120.055 82.003 C 124.095 82.115,128.030 82.079,128.800 81.924 C 132.189 81.242,133.526 77.274,131.234 74.706 L 130.067 73.400 121.934 73.304 C 115.281 73.225,113.601 73.318,112.705 73.814 M142.448 73.868 C 139.830 75.189,139.351 78.662,141.482 80.886 L 142.550 82.000 151.044 82.000 L 159.538 82.000 160.769 80.769 C 162.484 79.055,162.510 76.584,160.834 74.706 L 159.667 73.400 151.734 73.293 C 144.912 73.201,143.611 73.282,142.448 73.868 M119.855 86.785 L 112.710 87.000 111.555 88.385 C 110.180 90.033,110.069 91.652,111.202 93.510 C 112.370 95.425,113.260 95.600,121.866 95.600 L 129.680 95.600 131.040 94.240 C 133.461 91.819,132.000 86.800,128.873 86.800 C 128.429 86.800,127.826 86.748,127.533 86.685 C 127.240 86.622,123.785 86.667,119.855 86.785 M82.844 87.358 C 80.416 88.704,80.073 92.153,82.160 94.240 L 83.520 95.600 91.334 95.600 C 95.632 95.600,99.610 95.424,100.174 95.210 C 102.926 94.163,103.501 90.021,101.187 87.900 L 99.987 86.800 91.894 86.814 C 85.946 86.825,83.547 86.969,82.844 87.358 M141.503 87.900 C 139.499 90.007,139.717 93.049,141.992 94.731 C 143.109 95.556,143.578 95.600,151.342 95.600 L 159.517 95.600 160.759 94.186 C 162.510 92.191,162.514 89.776,160.769 88.031 L 159.538 86.800 151.044 86.800 L 142.550 86.800 141.503 87.900 M324.742 139.787 C 331.113 143.315,331.200 143.725,331.200 170.089 C 331.200 196.412,331.058 197.050,324.486 200.278 L 322.200 201.400 199.800 201.280 L 77.400 201.159 75.271 200.100 C 69.106 197.031,69.024 196.666,68.874 171.600 C 68.712 144.577,68.893 143.624,74.874 140.048 C 77.481 138.490,78.087 138.482,201.200 138.542 L 322.600 138.600 324.742 139.787 M83.800 152.289 C 80.512 153.098,79.682 158.286,82.559 160.040 C 84.737 161.369,99.234 161.174,101.046 159.792 C 103.606 157.840,103.137 153.802,100.209 152.578 C 98.854 152.012,85.858 151.784,83.800 152.289 M113.204 152.342 C 110.064 153.263,109.512 158.430,112.373 160.121 C 113.825 160.978,128.357 161.167,130.146 160.352 C 132.591 159.238,133.159 155.662,131.234 153.506 L 130.067 152.200 122.134 152.125 C 117.770 152.084,113.752 152.182,113.204 152.342 M143.333 152.260 C 140.039 152.970,139.062 157.008,141.555 159.616 L 142.687 160.800 151.113 160.800 L 159.538 160.800 160.769 159.569 C 162.606 157.733,162.606 155.260,160.770 153.400 L 159.586 152.200 151.893 152.137 C 147.662 152.102,143.810 152.157,143.333 152.260 M290.372 155.721 C 273.486 160.513,277.966 186.447,295.368 184.643 C 304.151 183.733,309.671 177.312,309.088 168.685 C 308.484 159.739,299.105 153.243,290.372 155.721 M297.800 164.806 C 301.505 167.087,301.314 173.516,297.487 175.332 C 294.193 176.895,290.307 175.753,288.788 172.776 C 285.894 167.103,292.312 161.427,297.800 164.806 M82.714 166.295 C 80.376 167.745,80.211 171.334,82.392 173.300 L 83.613 174.400 91.506 174.394 C 100.187 174.388,100.864 174.241,102.121 172.089 C 103.075 170.456,102.792 168.528,101.349 166.812 L 100.329 165.600 92.064 165.611 C 85.025 165.620,83.639 165.721,82.714 166.295 M112.487 166.224 C 110.556 167.577,109.828 170.606,111.024 172.313 C 112.338 174.189,113.425 174.400,121.774 174.400 L 129.587 174.400 130.833 173.287 C 132.843 171.491,132.951 168.871,131.091 167.011 L 129.680 165.600 121.529 165.600 C 114.790 165.600,113.224 165.708,112.487 166.224 M141.723 166.900 C 140.152 168.554,139.826 169.662,140.400 171.400 C 141.319 174.186,142.095 174.400,151.283 174.400 L 159.443 174.400 160.671 173.100 C 162.804 170.842,162.752 169.140,160.476 166.700 L 159.450 165.600 151.204 165.600 L 142.957 165.600 141.723 166.900 M85.200 179.079 C 82.869 179.417,82.335 179.688,81.589 180.911 C 80.100 183.353,80.627 185.734,82.981 187.188 C 85.002 188.437,99.140 188.289,100.881 187.000 C 103.190 185.291,103.328 182.239,101.190 180.190 L 99.989 179.040 93.095 178.987 C 89.303 178.958,85.750 178.999,85.200 179.079 M114.355 179.091 C 110.033 179.543,109.046 185.497,112.984 187.366 C 115.208 188.421,127.969 188.280,130.253 187.174 C 132.898 185.894,133.199 181.717,130.775 179.930 C 129.811 179.220,118.600 178.646,114.355 179.091 M146.003 179.117 C 140.276 179.317,137.755 184.240,141.930 187.074 C 143.633 188.230,159.103 188.168,160.413 187.000 C 162.480 185.155,162.661 182.514,160.860 180.472 L 159.800 179.270 154.600 179.135 C 151.740 179.060,147.872 179.052,146.003 179.117 M324.495 231.855 C 326.554 233.031,328.550 234.841,329.325 236.233 C 331.234 239.662,331.200 239.184,331.200 262.492 L 331.200 284.486 330.019 286.961 C 328.796 289.524,326.717 291.575,324.014 292.886 C 322.688 293.530,315.006 293.574,199.994 293.586 L 77.388 293.600 75.821 292.760 C 73.063 291.282,71.336 289.611,70.153 287.276 L 69.000 285.000 69.000 262.400 L 69.000 239.800 70.171 237.414 C 71.725 234.251,75.059 231.518,77.893 231.086 C 78.502 230.993,133.900 230.935,201.000 230.958 L 323.000 231.000 324.495 231.855 M83.355 244.792 C 80.272 246.038,79.925 250.838,82.796 252.534 C 84.760 253.694,99.023 253.509,100.816 252.300 C 103.344 250.595,103.243 246.834,100.627 245.217 C 99.206 244.339,85.323 243.997,83.355 244.792 M112.505 245.243 C 109.851 246.942,109.885 250.810,112.568 252.446 C 114.343 253.528,128.627 253.584,130.435 252.516 C 132.780 251.130,132.955 247.274,130.756 245.424 C 129.030 243.972,114.712 243.830,112.505 245.243 M141.547 245.511 C 139.595 247.529,139.714 250.302,141.837 252.269 C 142.821 253.181,143.007 253.200,151.142 253.200 L 159.443 253.200 160.722 251.881 C 162.567 249.977,162.551 247.491,160.681 245.678 L 159.362 244.400 150.981 244.411 L 142.600 244.422 141.547 245.511 M290.800 247.845 C 286.476 249.481,285.128 250.346,283.158 252.751 C 273.364 264.708,284.858 281.052,299.586 276.109 C 311.620 272.070,312.272 254.175,300.580 248.798 C 298.617 247.895,292.296 247.279,290.800 247.845 M297.928 257.229 C 301.362 259.931,301.301 265.367,297.813 267.458 C 293.658 269.948,288.000 266.909,288.000 262.188 C 288.000 260.856,289.558 257.600,290.195 257.600 C 290.474 257.600,290.926 257.330,291.200 257.000 C 292.007 256.027,296.599 256.184,297.928 257.229 M82.559 258.730 C 80.429 260.510,80.179 263.292,81.968 265.294 L 83.135 266.600 91.694 266.600 L 100.253 266.600 101.302 265.468 C 103.198 263.422,103.190 261.140,101.280 259.100 L 100.250 258.000 91.825 258.013 C 84.384 258.025,83.302 258.109,82.559 258.730 M111.860 259.138 C 109.627 261.468,110.248 265.076,113.085 266.261 C 114.231 266.740,116.072 266.834,122.292 266.730 L 130.067 266.600 131.234 265.294 C 132.942 263.380,132.883 261.025,131.081 259.278 L 129.762 258.000 121.356 258.000 L 112.950 258.000 111.860 259.138 M141.435 259.231 C 139.380 261.673,139.800 264.651,142.400 266.071 C 144.530 267.234,159.052 267.016,160.414 265.800 C 162.730 263.733,162.728 260.458,160.409 258.807 C 159.360 258.059,158.659 258.000,150.874 258.000 L 142.471 258.000 141.435 259.231 M83.112 272.021 C 79.436 273.962,80.103 278.853,84.201 280.000 C 87.014 280.788,99.135 280.396,100.546 279.472 C 103.353 277.633,103.367 273.686,100.572 272.036 C 98.492 270.809,85.429 270.798,83.112 272.021 M112.848 271.954 C 109.473 273.752,109.570 277.940,113.024 279.612 C 114.763 280.453,122.102 280.699,127.860 280.108 C 132.623 279.619,134.164 274.357,130.200 272.117 C 127.995 270.871,115.107 270.750,112.848 271.954 M141.600 272.600 C 139.795 274.462,139.708 277.034,141.390 278.789 C 143.434 280.923,159.182 280.832,161.037 278.675 C 162.443 277.040,162.364 274.606,160.845 272.785 L 159.689 271.400 151.344 271.278 L 142.999 271.157 141.600 272.600 M203.157 342.638 C 208.681 345.901,205.139 356.005,199.108 354.185 C 195.190 353.003,193.819 351.179,194.084 347.505 C 194.407 343.045,199.354 340.392,203.157 342.638 " stroke="none" fill="#202125" fill-rule="evenodd"></path><path id="path2" d="M0.000 200.000 L 0.000 400.000 200.000 400.000 L 400.000 400.000 400.000 200.000 L 400.000 0.000 200.000 0.000 L 0.000 0.000 0.000 200.000 M324.774 37.247 C 331.186 39.041,335.782 42.807,338.628 48.600 L 340.200 51.800 340.312 76.781 C 340.428 102.878,340.335 104.559,338.650 106.743 C 338.143 107.400,337.370 108.715,336.853 109.800 C 335.984 111.625,331.618 115.172,328.263 116.779 C 323.994 118.824,324.803 118.799,263.333 118.800 C 231.836 118.800,205.781 118.909,205.433 119.043 C 204.905 119.245,204.800 120.074,204.800 124.043 L 204.800 128.800 263.500 128.805 C 312.661 128.809,322.525 128.901,324.200 129.371 C 326.534 130.026,328.914 130.906,329.200 131.219 C 329.310 131.340,330.223 131.913,331.228 132.494 C 334.031 134.112,336.563 136.994,338.469 140.735 L 340.200 144.133 340.312 169.355 C 340.392 187.517,340.296 194.917,339.967 195.789 C 337.954 201.131,332.674 208.000,330.580 208.000 C 330.292 208.000,329.819 208.225,329.529 208.500 C 328.933 209.063,326.980 209.863,324.600 210.519 C 323.477 210.829,305.370 210.997,263.900 211.084 L 204.800 211.208 204.800 215.957 C 204.800 220.544,204.831 220.715,205.700 220.948 C 206.195 221.081,232.472 221.192,264.094 221.195 C 322.794 221.200,322.765 221.199,327.200 222.711 C 330.356 223.787,336.799 228.733,336.800 230.080 C 336.800 230.234,337.309 231.134,337.930 232.080 C 340.414 235.860,340.400 235.691,340.400 262.383 C 340.400 289.018,340.485 287.964,337.945 292.800 C 336.561 295.435,332.042 299.857,329.734 300.833 C 322.708 303.807,327.702 303.600,262.834 303.600 L 204.800 303.600 204.800 318.138 C 204.800 334.284,204.625 333.244,207.538 334.399 C 209.356 335.119,213.103 338.943,213.871 340.861 C 214.865 343.345,212.118 343.220,264.982 343.191 C 317.598 343.162,315.036 343.055,316.420 345.326 C 317.911 347.771,317.254 350.658,314.835 352.288 L 313.482 353.200 264.595 353.200 C 210.740 353.200,213.600 353.072,213.600 355.488 C 213.600 356.498,210.871 359.545,208.649 361.016 C 201.591 365.687,190.525 363.335,186.922 356.400 C 185.085 352.862,190.532 353.200,135.342 353.200 C 82.205 353.200,85.389 353.323,83.724 351.206 C 82.258 349.342,82.855 345.385,84.811 343.992 C 85.959 343.174,86.175 343.171,135.017 343.181 C 188.346 343.192,185.062 343.357,186.363 340.590 C 187.320 338.553,190.247 335.608,192.400 334.517 C 195.425 332.983,195.200 334.301,195.200 318.142 L 195.200 303.608 136.300 303.489 C 72.342 303.361,76.553 303.515,71.237 301.104 C 65.963 298.712,62.236 294.443,60.361 288.648 C 59.648 286.443,59.600 284.796,59.600 262.400 C 59.600 236.397,59.609 236.281,61.947 232.400 C 62.411 231.630,62.956 230.640,63.159 230.200 C 64.714 226.833,70.332 223.261,76.646 221.626 C 77.775 221.334,96.483 221.200,136.114 221.200 C 167.915 221.200,194.219 221.091,194.567 220.957 C 195.095 220.755,195.200 219.926,195.200 215.957 L 195.200 211.200 136.806 211.200 C 94.895 211.200,77.874 211.073,76.506 210.749 C 69.758 209.154,64.168 204.839,61.541 199.200 C 59.484 194.784,59.600 196.506,59.600 170.459 C 59.600 142.407,59.462 143.635,63.271 137.800 C 65.115 134.974,68.577 132.243,72.600 130.440 C 76.217 128.819,75.814 128.829,136.700 128.814 L 195.200 128.800 195.200 124.043 C 195.200 120.074,195.095 119.245,194.567 119.043 C 194.219 118.909,168.344 118.796,137.067 118.792 C 76.158 118.783,75.904 118.776,71.761 116.791 C 67.209 114.610,62.000 109.588,62.000 107.380 C 62.000 107.061,61.847 106.800,61.661 106.800 C 59.548 106.800,58.433 56.793,60.418 51.057 C 62.996 43.606,69.503 38.034,77.200 36.684 C 77.750 36.588,132.999 36.484,199.974 36.454 L 321.749 36.400 324.774 37.247 M292.200 73.006 C 288.219 75.144,288.117 80.192,292.015 82.208 C 294.312 83.395,296.436 82.886,298.469 80.660 C 301.889 76.915,296.705 70.587,292.200 73.006 M291.572 165.498 C 287.069 168.236,289.416 175.200,294.842 175.200 C 296.558 175.200,299.600 172.165,299.600 170.453 C 299.600 166.188,295.053 163.382,291.572 165.498 M292.190 257.636 C 287.215 260.184,288.895 267.600,294.447 267.600 C 295.521 267.600,296.400 267.432,296.400 267.227 C 296.400 267.022,296.747 266.744,297.171 266.609 C 297.595 266.475,298.315 265.732,298.771 264.959 C 301.446 260.425,296.812 255.268,292.190 257.636 M197.560 343.597 C 195.027 344.935,193.732 349.015,195.400 350.400 C 195.730 350.674,196.000 351.110,196.000 351.370 C 196.000 353.719,203.112 353.174,204.522 350.717 C 207.131 346.170,202.211 341.138,197.560 343.597 " stroke="none" fill="#fbfbfb" fill-rule="evenodd"></path><path id="path3" d="M77.895 37.249 C 69.591 38.318,63.101 43.932,60.611 52.200 C 59.706 55.203,59.708 99.512,60.613 102.986 C 62.209 109.111,66.961 114.338,73.298 116.938 L 75.400 117.800 135.000 118.000 C 167.780 118.110,194.825 118.346,195.100 118.524 C 195.376 118.703,195.600 118.677,195.600 118.466 C 195.600 117.645,192.495 117.600,135.962 117.600 C 66.902 117.600,73.424 118.109,66.929 112.214 C 64.033 109.586,62.567 107.335,61.380 103.699 L 60.400 100.698 60.400 77.477 C 60.400 53.891,60.413 53.651,61.939 49.800 C 63.864 44.940,69.214 40.120,74.400 38.575 C 78.510 37.350,322.049 37.359,325.800 38.584 C 329.066 39.651,335.600 44.242,335.600 45.470 C 335.600 45.610,336.012 46.281,336.516 46.962 C 337.490 48.280,338.421 50.390,339.178 53.000 C 340.163 56.394,339.566 101.759,338.500 104.586 C 337.459 107.346,337.399 107.676,338.133 106.589 C 339.875 104.012,340.000 102.079,340.000 77.693 C 340.000 52.472,339.988 52.317,337.760 48.053 C 334.693 42.186,329.483 38.588,322.045 37.202 C 319.340 36.697,81.823 36.744,77.895 37.249 M78.576 46.394 C 75.116 46.907,71.918 49.339,70.120 52.827 L 69.000 55.000 69.000 77.600 L 69.000 100.200 70.188 102.544 C 71.435 105.005,73.646 107.207,76.000 108.331 C 77.299 108.952,86.256 109.000,200.000 109.000 L 322.600 109.000 324.480 108.065 C 331.065 104.792,331.296 103.686,331.130 76.200 L 331.000 54.600 329.936 52.600 C 328.602 50.093,326.772 48.352,324.200 47.141 L 322.200 46.200 201.400 46.147 C 134.960 46.118,79.689 46.230,78.576 46.394 M323.285 47.613 C 325.893 48.615,327.907 50.379,329.434 53.000 L 330.600 55.000 330.726 76.186 C 330.814 90.974,330.715 97.913,330.401 99.164 C 329.242 103.765,326.928 106.496,322.917 107.997 C 319.847 109.145,81.162 109.279,77.771 108.134 C 73.691 106.757,71.787 105.028,70.351 101.400 L 69.401 99.000 69.469 77.152 L 69.536 55.304 70.752 52.952 C 72.060 50.421,74.458 48.313,77.101 47.370 C 80.007 46.333,320.572 46.570,323.285 47.613 M83.715 59.466 C 79.943 60.258,78.955 65.785,82.158 68.179 C 83.669 69.309,98.313 69.658,100.508 68.617 C 103.755 67.076,104.182 62.106,101.238 60.106 C 100.221 59.414,86.368 58.909,83.715 59.466 M113.333 59.639 C 109.632 60.710,108.774 66.128,111.962 68.294 C 113.560 69.381,128.361 69.558,130.394 68.515 C 133.841 66.748,133.694 61.234,130.161 59.758 C 128.613 59.111,115.477 59.018,113.333 59.639 M142.800 59.469 C 139.322 60.796,138.492 64.986,141.175 67.669 L 142.750 69.244 151.351 69.122 L 159.952 69.000 161.155 67.652 C 163.235 65.320,163.157 62.428,160.957 60.359 C 159.953 59.414,144.880 58.676,142.800 59.469 M99.708 60.080 C 103.541 61.228,103.878 66.219,100.242 67.980 C 98.076 69.028,85.761 69.212,83.414 68.232 C 79.854 66.744,80.067 61.099,83.723 60.041 C 85.650 59.484,97.817 59.513,99.708 60.080 M129.848 60.202 C 133.258 61.606,133.312 66.310,129.937 68.032 C 128.256 68.890,117.406 69.152,114.200 68.412 C 109.829 67.403,109.043 62.149,112.992 60.343 C 114.998 59.426,127.705 59.320,129.848 60.202 M160.432 60.617 C 163.290 63.164,162.339 67.447,158.698 68.427 C 157.663 68.706,154.356 68.823,149.926 68.737 L 142.815 68.600 141.578 67.363 C 138.968 64.752,140.221 60.365,143.721 59.864 C 147.652 59.302,159.558 59.838,160.432 60.617 M288.600 63.386 C 273.561 68.773,277.035 91.682,293.045 92.700 C 310.283 93.795,316.470 69.727,300.531 63.582 C 296.912 62.187,292.166 62.109,288.600 63.386 M299.600 63.829 C 300.810 64.215,301.980 64.733,302.200 64.980 C 302.420 65.227,303.188 65.842,303.907 66.347 C 308.770 69.761,310.603 78.120,307.773 83.981 C 306.607 86.397,302.622 90.564,301.147 90.912 C 300.626 91.034,299.390 91.437,298.400 91.807 C 288.339 95.564,277.519 85.128,279.997 74.058 C 280.658 71.105,284.345 65.600,285.663 65.600 C 285.866 65.600,286.549 65.218,287.181 64.751 C 289.798 62.816,295.174 62.417,299.600 63.829 M292.212 71.932 C 286.414 73.881,287.211 83.683,293.160 83.582 C 294.032 83.568,293.942 83.474,292.600 82.999 C 285.694 80.558,288.541 70.812,295.764 72.167 C 301.083 73.165,301.340 81.875,296.084 83.031 C 294.282 83.428,294.144 83.535,295.400 83.566 C 300.427 83.687,302.484 74.651,297.914 72.525 C 294.695 71.027,294.855 71.044,292.212 71.932 M82.930 73.384 C 79.510 74.871,79.219 79.857,82.441 81.760 C 83.709 82.509,84.575 82.560,94.540 82.460 L 100.480 82.400 101.840 81.040 C 104.022 78.858,103.659 75.156,101.110 73.602 C 99.437 72.582,85.167 72.411,82.930 73.384 M112.305 73.426 C 109.684 74.849,109.196 78.690,111.347 80.972 L 112.694 82.400 119.647 82.319 L 126.600 82.237 119.655 82.019 L 112.710 81.800 111.555 80.415 C 110.258 78.861,110.088 77.364,111.004 75.592 C 112.037 73.595,112.789 73.417,121.200 73.183 L 129.000 72.967 121.200 72.899 C 114.963 72.846,113.181 72.951,112.305 73.426 M141.153 74.353 C 138.954 76.552,138.908 79.053,141.028 81.053 L 142.457 82.400 151.150 82.400 L 159.843 82.400 161.136 81.066 C 163.403 78.728,163.165 75.689,160.554 73.635 C 159.554 72.849,159.005 72.800,151.099 72.800 L 142.706 72.800 141.153 74.353 M100.400 73.711 C 102.939 74.980,103.360 78.879,101.176 80.900 L 99.987 82.000 92.494 82.046 C 83.616 82.101,83.698 82.107,82.552 81.262 C 79.822 79.248,80.592 74.085,83.714 73.481 C 85.963 73.045,99.440 73.232,100.400 73.711 M129.845 73.592 C 133.580 75.101,132.676 81.980,128.740 82.006 C 128.223 82.009,127.530 82.206,127.200 82.444 C 126.701 82.803,126.723 82.835,127.333 82.638 C 127.736 82.507,128.519 82.400,129.073 82.400 C 132.340 82.400,134.109 76.847,131.631 74.369 C 130.988 73.726,130.133 73.211,129.731 73.225 C 129.102 73.247,129.118 73.298,129.845 73.592 M160.834 74.706 C 162.510 76.584,162.484 79.055,160.769 80.769 L 159.538 82.000 151.044 82.000 L 142.550 82.000 141.482 80.886 C 139.351 78.662,139.830 75.189,142.448 73.868 C 143.611 73.282,144.912 73.201,151.734 73.293 L 159.667 73.400 160.834 74.706 M82.497 86.930 C 79.708 88.479,79.370 92.817,81.883 94.794 C 83.494 96.061,83.657 95.737,82.160 94.240 C 80.038 92.118,80.478 88.422,82.989 87.278 C 85.299 86.225,99.756 86.647,101.135 87.807 C 102.640 89.073,103.132 91.397,102.255 93.093 C 101.095 95.337,100.913 95.382,92.040 95.634 L 83.800 95.869 92.259 95.834 C 100.126 95.802,100.781 95.744,101.614 95.000 C 103.807 93.041,103.889 89.987,101.807 87.780 L 100.506 86.400 91.953 86.414 C 85.865 86.424,83.140 86.573,82.497 86.930 M111.347 87.828 C 109.491 89.796,109.417 92.535,111.167 94.494 L 112.334 95.800 121.335 95.800 C 131.532 95.800,131.754 95.734,132.753 92.401 C 133.598 89.578,131.375 86.351,128.646 86.441 L 127.400 86.482 128.794 86.810 C 132.347 87.645,133.574 91.706,131.040 94.240 L 129.680 95.600 121.866 95.600 C 113.260 95.600,112.370 95.425,111.202 93.510 C 110.069 91.652,110.180 90.033,111.555 88.385 L 112.710 87.000 119.855 86.782 L 127.000 86.564 119.847 86.482 L 112.694 86.400 111.347 87.828 M141.013 87.813 C 138.940 89.887,138.959 92.539,141.061 94.581 L 142.523 96.000 151.031 96.000 L 159.539 96.000 160.743 94.987 C 163.169 92.945,163.311 90.004,161.094 87.700 L 159.843 86.400 151.135 86.400 L 142.427 86.400 141.013 87.813 M160.769 88.031 C 162.514 89.776,162.510 92.191,160.759 94.186 L 159.517 95.600 151.342 95.600 C 143.578 95.600,143.109 95.556,141.992 94.731 C 139.717 93.049,139.499 90.007,141.503 87.900 L 142.550 86.800 151.044 86.800 L 159.538 86.800 160.769 88.031 M336.233 108.700 C 335.209 110.617,331.162 114.386,328.818 115.605 C 325.282 117.445,327.547 117.375,264.205 117.594 C 205.742 117.796,204.608 117.815,204.462 118.572 C 204.323 119.294,204.356 119.301,204.985 118.672 C 205.608 118.049,209.929 118.000,264.386 118.000 C 330.661 118.000,325.421 118.247,330.629 114.878 C 333.743 112.864,338.513 107.600,337.224 107.600 C 337.002 107.600,336.556 108.095,336.233 108.700 M195.593 124.000 L 195.400 129.000 136.200 129.200 L 77.000 129.400 74.200 130.385 C 68.492 132.393,65.108 135.411,61.626 141.600 C 60.162 144.201,60.026 146.800,60.106 170.600 L 60.185 193.800 60.419 170.000 C 60.646 146.951,60.843 143.397,61.952 142.288 C 62.198 142.042,62.400 141.529,62.400 141.149 C 62.400 140.768,62.629 140.219,62.908 139.929 C 63.187 139.638,63.952 138.666,64.608 137.769 C 66.735 134.858,70.066 132.399,73.800 130.983 C 75.726 130.252,78.017 130.220,135.489 130.106 C 194.483 129.989,195.184 129.978,195.602 129.196 C 195.853 128.728,195.976 126.488,195.905 123.703 L 195.785 119.000 195.593 124.000 M204.406 128.900 C 204.403 129.285,204.445 129.642,204.500 129.694 C 204.555 129.746,231.510 129.885,264.400 130.003 C 320.418 130.203,324.314 130.262,326.000 130.926 C 328.064 131.740,329.864 132.606,330.958 133.311 C 331.957 133.955,336.000 138.077,336.000 138.451 C 336.000 138.612,336.234 138.981,336.521 139.271 C 339.384 142.178,339.661 145.164,339.523 171.600 L 339.400 195.000 338.413 197.200 C 335.805 203.012,331.618 207.007,326.074 208.975 C 323.843 209.767,322.686 209.786,264.233 209.991 C 213.886 210.168,204.638 210.286,204.481 210.756 C 204.351 211.148,204.459 211.207,204.848 210.956 C 205.160 210.755,231.320 210.506,265.000 210.383 C 329.938 210.146,327.111 210.249,329.308 208.052 C 329.557 207.803,329.983 207.600,330.255 207.600 C 332.114 207.600,337.909 200.145,339.429 195.800 C 340.237 193.488,340.236 148.070,339.427 144.800 C 337.704 137.831,333.156 133.025,325.800 130.401 L 323.000 129.402 264.016 129.289 C 218.185 129.200,204.963 129.066,204.722 128.687 C 204.508 128.350,204.410 128.416,204.406 128.900 M78.074 138.825 C 73.531 139.725,70.168 143.286,69.213 148.205 C 68.288 152.966,68.823 192.218,69.842 194.420 C 71.046 197.022,72.823 198.881,75.271 200.100 L 77.400 201.159 199.800 201.280 L 322.200 201.400 324.486 200.278 C 331.058 197.050,331.200 196.412,331.200 170.089 C 331.200 143.725,331.113 143.315,324.742 139.787 L 322.600 138.600 201.200 138.542 C 134.430 138.509,79.023 138.637,78.074 138.825 M324.311 140.362 C 330.595 143.553,330.913 145.168,330.699 172.804 C 330.518 196.303,330.416 196.723,324.223 199.653 L 321.800 200.799 200.128 200.800 L 78.456 200.800 75.545 199.300 C 69.464 196.166,69.429 195.995,69.413 169.800 L 69.400 149.000 70.374 146.300 C 71.470 143.262,72.007 142.653,75.376 140.628 L 77.753 139.200 199.888 139.200 L 322.023 139.200 324.311 140.362 M83.800 151.906 C 81.604 152.668,79.756 155.294,80.227 156.985 C 81.355 161.040,82.339 161.407,91.990 161.377 C 98.137 161.357,99.617 161.238,100.676 160.679 C 104.452 158.683,103.992 153.290,99.927 151.905 C 97.244 150.991,86.437 150.992,83.800 151.906 M115.000 151.466 C 111.349 152.314,110.004 153.698,110.001 156.611 C 110.000 158.502,110.772 159.758,112.480 160.641 C 113.867 161.359,124.441 161.770,126.854 161.200 C 127.694 161.001,125.443 160.867,120.862 160.841 C 111.819 160.790,110.400 160.193,110.400 156.440 C 110.400 152.663,112.520 151.898,122.506 152.070 L 130.067 152.200 131.234 153.506 C 133.306 155.827,132.619 159.175,129.808 160.452 C 128.924 160.854,128.500 161.186,128.868 161.191 C 133.778 161.256,134.137 153.101,129.286 151.684 C 127.844 151.263,116.612 151.092,115.000 151.466 M143.341 151.618 C 139.692 152.730,138.359 157.335,140.972 159.799 C 143.578 162.257,158.247 162.297,160.974 159.853 C 163.417 157.663,163.108 154.311,160.271 152.228 C 159.002 151.297,145.941 150.826,143.341 151.618 M100.209 152.578 C 103.137 153.802,103.606 157.840,101.046 159.792 C 99.234 161.174,84.737 161.369,82.559 160.040 C 79.682 158.286,80.512 153.098,83.800 152.289 C 85.858 151.784,98.854 152.012,100.209 152.578 M160.770 153.400 C 162.606 155.260,162.606 157.733,160.769 159.569 L 159.538 160.800 151.113 160.800 L 142.687 160.800 141.555 159.616 C 139.582 157.551,139.541 155.158,141.449 153.389 C 142.838 152.102,143.148 152.065,151.893 152.137 L 159.586 152.200 160.770 153.400 M291.200 154.991 C 280.490 157.692,274.895 171.032,281.345 178.490 C 284.032 181.597,284.754 182.306,286.043 183.103 C 290.147 185.639,299.326 185.685,302.553 183.186 C 316.447 172.427,307.747 150.819,291.200 154.991 M300.173 156.326 C 304.927 158.189,308.736 163.469,309.088 168.685 C 309.418 173.564,308.153 176.986,304.771 180.370 C 297.356 187.789,284.456 185.284,280.675 175.691 C 275.801 163.322,287.747 151.457,300.173 156.326 M292.717 163.983 C 285.785 166.152,286.990 176.000,294.187 176.000 C 298.155 176.000,300.396 173.858,300.399 170.062 C 300.402 165.775,296.601 162.767,292.717 163.983 M297.343 165.159 C 302.105 168.299,300.096 175.600,294.470 175.600 C 288.706 175.600,286.455 168.150,291.322 165.182 C 292.983 164.170,295.826 164.159,297.343 165.159 M83.255 165.316 C 79.483 166.770,79.067 172.497,82.612 174.179 C 84.712 175.175,99.338 175.079,101.013 174.058 C 104.002 172.235,104.032 167.750,101.068 165.808 C 99.738 164.937,85.276 164.537,83.255 165.316 M113.814 165.206 C 109.462 166.018,108.419 171.663,112.190 173.994 C 114.304 175.300,128.864 175.216,130.841 173.885 C 133.718 171.949,133.618 167.308,130.664 165.691 C 129.290 164.940,117.122 164.590,113.814 165.206 M144.541 165.065 C 139.909 165.456,137.876 170.250,141.013 173.387 L 142.427 174.800 151.053 174.800 L 159.680 174.800 161.008 173.472 C 163.438 171.042,163.121 167.207,160.375 165.787 C 159.052 165.103,149.342 164.661,144.541 165.065 M101.349 166.812 C 102.792 168.528,103.075 170.456,102.121 172.089 C 100.864 174.241,100.187 174.388,91.506 174.394 L 83.613 174.400 82.392 173.300 C 80.211 171.334,80.376 167.745,82.714 166.295 C 83.639 165.721,85.025 165.620,92.064 165.611 L 100.329 165.600 101.349 166.812 M131.091 167.011 C 132.951 168.871,132.843 171.491,130.833 173.287 L 129.587 174.400 121.774 174.400 C 112.279 174.400,110.400 173.721,110.400 170.291 C 110.400 166.220,111.870 165.600,121.529 165.600 L 129.680 165.600 131.091 167.011 M160.476 166.700 C 162.752 169.140,162.804 170.842,160.671 173.100 L 159.443 174.400 151.283 174.400 C 142.095 174.400,141.319 174.186,140.400 171.400 C 139.826 169.662,140.152 168.554,141.723 166.900 L 142.957 165.600 151.204 165.600 L 159.450 165.600 160.476 166.700 M83.733 178.839 C 79.710 180.004,79.021 185.388,82.611 187.607 C 84.294 188.647,98.831 188.818,100.760 187.820 C 104.654 185.807,103.894 180.031,99.573 178.792 C 97.871 178.304,85.454 178.341,83.733 178.839 M113.885 178.767 C 109.691 179.631,108.468 185.166,111.962 187.475 C 114.342 189.048,128.796 188.912,131.067 187.295 C 133.704 185.417,133.585 181.169,130.843 179.311 C 129.694 178.532,117.003 178.125,113.885 178.767 M143.702 178.671 C 139.703 179.224,138.236 183.930,141.153 186.847 L 142.706 188.400 151.146 188.400 L 159.585 188.400 160.972 187.054 C 163.388 184.707,163.263 181.355,160.690 179.520 C 159.412 178.609,148.205 178.048,143.702 178.671 M101.190 180.190 C 103.328 182.239,103.190 185.291,100.881 187.000 C 99.140 188.289,85.002 188.437,82.981 187.188 C 80.627 185.734,80.100 183.353,81.589 180.911 C 82.714 179.066,83.619 178.915,93.095 178.987 L 99.989 179.040 101.190 180.190 M130.775 179.930 C 133.199 181.717,132.898 185.894,130.253 187.174 C 127.969 188.280,115.208 188.421,112.984 187.366 C 109.046 185.497,110.033 179.543,114.355 179.091 C 118.600 178.646,129.811 179.220,130.775 179.930 M160.860 180.472 C 162.661 182.514,162.480 185.155,160.413 187.000 C 159.103 188.168,143.633 188.230,141.930 187.074 C 139.759 185.600,139.562 182.152,141.541 180.257 C 142.761 179.088,145.096 178.887,154.600 179.135 L 159.800 179.270 160.860 180.472 M60.595 195.100 C 61.151 199.002,64.962 204.356,69.000 206.909 C 70.100 207.605,71.090 208.270,71.200 208.387 C 72.921 210.221,71.822 210.187,135.200 210.400 C 167.870 210.510,194.825 210.746,195.100 210.924 C 195.856 211.413,195.798 220.538,195.034 221.171 C 194.608 221.526,180.411 221.642,137.134 221.645 C 105.601 221.648,78.990 221.796,78.000 221.975 C 77.010 222.154,102.840 222.320,135.400 222.344 C 172.019 222.371,194.829 222.243,195.200 222.009 C 195.964 221.527,196.318 212.142,195.621 210.840 L 195.179 210.013 135.689 209.898 C 68.653 209.769,74.569 210.055,69.517 206.697 C 66.150 204.459,62.400 200.224,62.400 198.660 C 62.400 198.385,62.219 197.979,61.997 197.757 C 61.775 197.535,61.327 196.554,61.001 195.577 C 60.529 194.158,60.447 194.062,60.595 195.100 M204.406 221.257 C 204.395 222.399,204.523 222.401,264.733 222.347 C 297.220 222.317,322.900 222.151,321.800 221.976 C 320.700 221.802,293.987 221.656,262.437 221.652 C 215.675 221.646,205.014 221.548,204.744 221.122 C 204.491 220.724,204.411 220.755,204.406 221.257 M72.986 223.141 C 66.963 225.600,62.448 230.622,60.651 236.862 C 60.077 238.854,60.011 241.923,60.094 262.662 L 60.188 286.200 60.409 262.200 C 60.549 246.950,60.786 237.690,61.058 236.800 C 62.997 230.449,67.725 225.648,74.600 223.047 C 75.480 222.714,75.840 222.451,75.400 222.462 C 74.960 222.474,73.874 222.779,72.986 223.141 M324.600 222.689 C 325.040 222.798,325.580 223.026,325.800 223.197 C 326.020 223.368,326.785 223.633,327.500 223.786 C 328.215 223.938,328.800 224.217,328.800 224.405 C 328.800 224.593,329.144 224.855,329.565 224.989 C 332.865 226.036,337.613 232.147,339.052 237.200 C 339.822 239.902,339.815 285.063,339.045 287.600 C 337.414 292.970,330.651 300.730,327.528 300.814 C 326.795 300.834,324.873 301.968,325.543 301.986 C 329.851 302.098,337.463 294.304,339.397 287.800 C 340.292 284.789,340.287 239.711,339.391 236.629 C 337.454 229.967,329.360 222.185,324.639 222.446 C 323.832 222.491,323.831 222.500,324.600 222.689 M77.893 231.086 C 75.059 231.518,71.725 234.251,70.171 237.414 L 69.000 239.800 69.000 262.400 L 69.000 285.000 70.153 287.276 C 71.336 289.611,73.063 291.282,75.821 292.760 L 77.388 293.600 199.994 293.586 C 315.006 293.574,322.688 293.530,324.014 292.886 C 326.717 291.575,328.796 289.524,330.019 286.961 L 331.200 284.486 331.200 262.492 C 331.200 239.184,331.234 239.662,329.325 236.233 C 328.550 234.841,326.554 233.031,324.495 231.855 L 323.000 231.000 201.000 230.958 C 133.900 230.935,78.502 230.993,77.893 231.086 M323.694 232.103 C 324.516 232.489,326.148 233.750,327.321 234.905 C 330.788 238.317,330.800 238.416,330.800 262.969 C 330.800 284.779,330.889 283.528,329.045 287.576 C 328.800 288.112,327.811 289.310,326.847 290.238 C 323.457 293.497,335.775 293.221,199.200 293.104 L 77.400 293.000 75.800 292.060 C 73.006 290.419,71.645 289.218,71.070 287.891 C 70.764 287.181,70.262 286.060,69.956 285.400 C 69.275 283.930,68.918 245.812,69.547 241.768 C 70.392 236.343,73.462 232.701,78.133 231.582 C 81.215 230.844,322.104 231.355,323.694 232.103 M82.955 244.392 C 80.676 245.313,79.535 248.439,80.610 250.822 C 81.761 253.374,82.697 253.600,92.132 253.600 L 100.343 253.600 101.772 252.253 C 104.272 249.895,103.634 245.842,100.561 244.558 C 99.046 243.925,84.452 243.787,82.955 244.392 M112.526 244.585 C 109.211 246.027,109.157 251.323,112.440 253.020 C 114.347 254.007,129.391 253.846,131.072 252.821 C 133.563 251.303,133.385 245.992,130.800 244.701 C 128.948 243.776,114.596 243.685,112.526 244.585 M141.028 245.347 C 138.949 247.309,138.942 250.116,141.013 252.187 L 142.427 253.600 151.113 253.598 L 159.800 253.596 161.083 252.394 C 163.331 250.286,163.195 246.506,160.809 244.807 C 159.758 244.058,159.059 244.000,151.067 244.000 L 142.457 244.000 141.028 245.347 M100.627 245.217 C 103.243 246.834,103.344 250.595,100.816 252.300 C 99.023 253.509,84.760 253.694,82.796 252.534 C 79.925 250.838,80.272 246.038,83.355 244.792 C 85.323 243.997,99.206 244.339,100.627 245.217 M130.756 245.424 C 132.955 247.274,132.780 251.130,130.435 252.516 C 128.627 253.584,114.343 253.528,112.568 252.446 C 109.885 250.810,109.851 246.942,112.505 245.243 C 114.712 243.830,129.030 243.972,130.756 245.424 M160.681 245.678 C 162.551 247.491,162.567 249.977,160.722 251.881 L 159.443 253.200 151.142 253.200 C 143.007 253.200,142.821 253.181,141.837 252.269 C 139.714 250.302,139.595 247.529,141.547 245.511 L 142.600 244.422 150.981 244.411 L 159.362 244.400 160.681 245.678 M291.400 247.189 C 273.052 251.162,275.849 277.538,294.600 277.367 C 297.964 277.337,302.039 276.288,302.796 275.259 C 302.908 275.106,303.483 274.674,304.074 274.298 C 308.909 271.224,311.120 261.771,308.400 255.801 C 305.690 249.851,297.729 245.818,291.400 247.189 M300.580 248.798 C 312.272 254.175,311.620 272.070,299.586 276.109 C 284.858 281.052,273.364 264.708,283.158 252.751 C 285.128 250.346,286.476 249.481,290.800 247.845 C 292.296 247.279,298.617 247.895,300.580 248.798 M291.200 257.000 C 290.926 257.330,290.474 257.600,290.195 257.600 C 289.558 257.600,288.000 260.856,288.000 262.188 C 288.000 265.434,290.379 267.941,293.711 268.207 L 295.800 268.373 293.906 268.021 C 287.367 266.803,286.731 258.900,293.000 256.754 C 293.690 256.517,293.655 256.474,292.749 256.440 C 292.171 256.418,291.474 256.670,291.200 257.000 M296.837 257.237 C 301.079 259.109,300.752 267.485,296.433 267.587 C 296.122 267.594,295.994 267.727,296.149 267.882 C 296.633 268.367,298.966 266.840,299.700 265.558 C 301.658 262.138,299.283 256.366,295.937 256.413 C 295.237 256.423,295.466 256.632,296.837 257.237 M84.000 257.509 C 79.764 258.181,78.918 264.532,82.800 266.515 C 84.879 267.577,99.641 267.379,101.279 266.268 C 104.004 264.419,103.948 260.327,101.170 258.300 C 100.173 257.572,87.330 256.981,84.000 257.509 M116.066 257.551 C 109.400 257.996,107.095 265.112,113.079 266.773 C 115.453 267.432,128.529 267.324,130.186 266.632 C 135.619 264.362,133.006 257.600,126.696 257.600 C 124.835 257.600,122.522 257.533,121.556 257.451 C 120.590 257.369,118.120 257.414,116.066 257.551 M141.687 258.224 C 139.130 260.015,138.898 263.392,141.175 265.669 L 142.750 267.244 151.344 267.122 C 159.825 267.002,159.951 266.987,160.975 266.024 C 163.208 263.925,163.179 260.186,160.917 258.406 C 159.526 257.312,143.210 257.158,141.687 258.224 M101.280 259.100 C 103.190 261.140,103.198 263.422,101.302 265.468 L 100.253 266.600 91.694 266.600 L 83.135 266.600 81.968 265.294 C 80.179 263.292,80.429 260.510,82.559 258.730 C 83.302 258.109,84.384 258.025,91.825 258.013 L 100.250 258.000 101.280 259.100 M131.081 259.278 C 132.883 261.025,132.942 263.380,131.234 265.294 L 130.067 266.600 122.292 266.730 C 116.072 266.834,114.231 266.740,113.085 266.261 C 110.248 265.076,109.627 261.468,111.860 259.138 L 112.950 258.000 121.356 258.000 L 129.762 258.000 131.081 259.278 M160.409 258.807 C 162.728 260.458,162.730 263.733,160.414 265.800 C 159.052 267.016,144.530 267.234,142.400 266.071 C 139.800 264.651,139.380 261.673,141.435 259.231 L 142.471 258.000 150.874 258.000 C 158.659 258.000,159.360 258.059,160.409 258.807 M82.930 271.384 C 78.723 273.214,79.582 280.502,83.989 280.370 C 84.930 280.341,84.911 280.307,83.713 279.870 C 79.981 278.508,79.672 273.800,83.197 272.001 C 85.613 270.769,98.468 270.795,100.572 272.036 C 102.503 273.176,103.222 275.426,102.283 277.394 C 101.173 279.722,100.176 280.090,94.076 280.423 L 88.600 280.722 94.200 280.641 C 100.357 280.552,101.849 280.127,102.722 278.211 C 103.827 275.786,103.085 272.971,100.973 271.579 C 99.461 270.582,85.129 270.427,82.930 271.384 M112.526 271.370 C 108.412 273.209,109.491 280.402,113.880 280.400 C 114.276 280.400,113.861 280.034,112.958 279.587 C 109.553 277.901,109.500 273.683,112.863 271.968 C 115.298 270.726,127.930 270.834,130.200 272.117 C 133.968 274.246,132.550 279.891,128.204 280.064 C 126.657 280.126,126.648 280.134,127.947 280.293 C 132.626 280.865,134.802 274.399,130.838 271.706 C 129.414 270.738,114.550 270.465,112.526 271.370 M151.345 271.166 L 159.689 271.400 160.845 272.785 C 162.364 274.606,162.443 277.040,161.037 278.675 C 159.182 280.832,143.434 280.923,141.390 278.789 C 139.717 277.043,139.796 274.461,141.579 272.622 C 142.337 271.840,142.805 271.200,142.619 271.200 C 141.473 271.200,139.600 274.033,139.600 275.767 C 139.600 280.032,143.303 281.226,154.878 280.693 C 161.406 280.392,163.774 278.362,162.411 274.233 C 161.388 271.134,160.954 271.004,151.469 270.966 L 143.000 270.931 151.345 271.166 M119.800 280.400 L 114.600 280.637 119.676 280.718 C 122.721 280.767,124.852 280.640,125.000 280.400 C 125.136 280.180,125.192 280.037,125.124 280.082 C 125.056 280.127,122.660 280.270,119.800 280.400 M60.621 287.600 C 61.551 292.431,67.071 299.115,71.600 300.893 C 72.150 301.109,72.913 301.447,73.295 301.643 C 73.677 301.839,74.217 301.994,74.495 301.987 C 75.274 301.968,73.550 300.800,72.741 300.800 C 71.996 300.800,70.346 299.775,67.631 297.625 C 64.828 295.405,61.211 290.045,61.194 288.086 C 61.191 287.709,61.000 287.130,60.770 286.800 C 60.462 286.358,60.423 286.569,60.621 287.600 M76.640 302.477 C 77.498 302.629,104.311 302.764,136.224 302.777 C 181.983 302.795,194.391 302.906,194.929 303.300 C 195.554 303.758,195.602 305.040,195.506 318.572 L 195.400 333.344 193.364 334.572 C 189.272 337.041,186.400 340.154,186.400 342.121 C 186.400 342.476,185.686 342.997,184.700 343.362 C 183.097 343.955,183.080 343.977,184.400 343.749 C 186.084 343.459,186.800 342.939,186.800 342.009 C 186.800 340.440,192.434 334.800,194.001 334.800 C 194.220 334.800,194.760 334.440,195.200 334.000 C 196.194 333.006,196.472 304.386,195.500 303.082 C 195.037 302.460,190.613 302.403,135.040 302.306 C 102.062 302.248,75.782 302.325,76.640 302.477 M263.405 302.398 C 205.731 302.596,204.608 302.615,204.462 303.372 C 204.323 304.094,204.356 304.101,204.985 303.472 C 205.608 302.849,209.906 302.798,263.729 302.777 C 295.668 302.764,322.520 302.605,323.400 302.423 C 324.996 302.093,324.996 302.092,323.600 302.144 C 322.830 302.173,295.742 302.287,263.405 302.398 M204.446 333.088 C 204.410 333.779,204.865 334.204,206.500 335.010 C 209.675 336.575,213.200 340.291,213.200 342.073 C 213.200 342.959,214.051 343.562,215.638 343.798 C 216.926 343.990,216.939 343.981,215.874 343.628 C 214.301 343.107,213.731 342.553,213.474 341.291 C 213.155 339.723,209.779 336.278,207.125 334.810 C 205.873 334.118,204.769 333.247,204.671 332.876 C 204.543 332.390,204.480 332.449,204.446 333.088 M195.982 343.527 C 192.036 347.029,193.652 352.539,199.108 354.185 C 200.708 354.668,203.896 353.310,205.010 351.672 C 209.122 345.620,201.437 338.686,195.982 343.527 M202.714 343.078 C 207.881 346.306,205.942 353.607,199.920 353.597 C 194.316 353.589,192.290 346.239,197.052 343.193 C 198.518 342.255,201.306 342.199,202.714 343.078 M85.113 344.502 C 82.583 346.591,82.889 350.549,85.698 352.052 C 86.131 352.284,105.324 352.425,135.302 352.417 C 187.052 352.403,185.998 352.366,186.339 354.210 C 186.603 355.637,189.358 358.832,191.644 360.363 C 199.090 365.346,210.258 362.397,213.617 354.560 C 214.032 353.592,214.603 352.795,214.886 352.788 C 215.169 352.781,237.047 352.762,263.504 352.745 C 289.960 352.728,312.253 352.569,313.042 352.390 C 318.209 351.225,317.649 343.475,312.411 343.646 L 311.000 343.692 312.479 343.980 C 316.182 344.700,317.499 348.578,314.869 351.017 L 313.808 352.000 264.730 352.000 C 212.692 352.000,213.748 351.960,213.347 353.967 C 213.018 355.611,209.032 359.660,206.388 361.036 C 199.996 364.362,188.136 360.249,186.921 354.286 C 186.427 351.858,189.619 352.000,135.581 352.000 L 86.139 352.000 85.296 351.100 C 82.482 348.096,83.804 344.562,88.000 343.873 C 88.751 343.750,88.651 343.696,87.600 343.656 C 86.680 343.622,85.827 343.912,85.113 344.502 " stroke="none" fill="#837c7e" fill-rule="evenodd"></path><path id="path4" d="M77.200 36.684 C 69.503 38.034,62.996 43.606,60.418 51.057 C 59.181 54.632,59.311 102.276,60.566 105.100 C 61.654 107.549,62.087 107.199,61.062 104.700 C 60.017 102.155,59.470 56.450,60.440 52.800 C 62.434 45.298,67.996 39.701,75.611 37.535 C 77.983 36.861,317.974 36.528,321.879 37.193 C 330.928 38.736,337.308 44.231,339.441 52.320 C 340.355 55.784,340.252 100.049,339.323 103.362 C 337.537 109.725,332.128 115.216,325.687 117.206 C 323.172 117.983,321.840 118.000,264.386 118.000 C 211.530 118.000,205.594 118.063,205.029 118.629 C 204.518 119.139,204.416 120.134,204.486 123.929 L 204.571 128.600 204.699 124.015 C 204.784 120.978,204.992 119.326,205.314 119.121 C 205.581 118.951,231.630 118.809,263.200 118.806 C 324.808 118.799,323.995 118.824,328.263 116.779 C 331.618 115.172,335.984 111.625,336.853 109.800 C 337.370 108.715,338.143 107.400,338.650 106.743 C 340.335 104.559,340.428 102.878,340.312 76.781 L 340.200 51.800 338.628 48.600 C 335.782 42.807,331.186 39.041,324.774 37.247 L 321.749 36.400 199.974 36.454 C 132.999 36.484,77.750 36.588,77.200 36.684 M291.800 72.539 C 287.704 74.423,287.646 80.555,291.705 82.654 C 295.504 84.619,299.957 81.947,299.986 77.685 C 300.014 73.569,295.597 70.793,291.800 72.539 M298.100 74.422 C 300.574 77.194,299.899 80.527,296.496 82.349 C 293.351 84.032,289.186 81.342,289.214 77.646 C 289.252 72.775,294.825 70.753,298.100 74.422 M62.000 107.523 C 62.000 109.610,67.276 114.615,71.761 116.782 C 75.886 118.776,76.118 118.783,137.067 118.792 C 168.344 118.796,194.219 118.909,194.567 119.043 C 195.095 119.245,195.200 120.074,195.200 124.043 L 195.200 128.800 136.700 128.814 C 75.814 128.829,76.217 128.819,72.600 130.440 C 68.577 132.243,65.115 134.974,63.271 137.800 C 59.462 143.635,59.600 142.407,59.600 170.459 C 59.600 196.506,59.484 194.784,61.541 199.200 C 64.168 204.839,69.758 209.154,76.506 210.749 C 77.874 211.073,94.895 211.200,136.806 211.200 L 195.200 211.200 195.200 215.957 C 195.200 219.926,195.095 220.755,194.567 220.957 C 194.219 221.091,167.915 221.200,136.114 221.200 C 96.483 221.200,77.775 221.334,76.646 221.626 C 70.332 223.261,64.714 226.833,63.159 230.200 C 62.956 230.640,62.411 231.630,61.947 232.400 C 59.609 236.281,59.600 236.397,59.600 262.400 C 59.600 284.796,59.648 286.443,60.361 288.648 C 62.025 293.792,65.695 298.377,69.880 300.539 C 71.530 301.391,72.063 301.391,70.789 300.538 C 64.821 296.545,62.031 292.994,60.580 287.544 C 59.675 284.144,59.737 240.037,60.651 236.862 C 62.465 230.563,67.311 225.245,73.200 223.090 C 77.142 221.647,79.381 221.596,137.334 221.619 C 180.496 221.635,194.607 221.526,195.034 221.171 C 195.798 220.538,195.856 211.413,195.100 210.924 C 194.825 210.746,167.870 210.510,135.200 210.400 C 71.822 210.187,72.921 210.221,71.200 208.387 C 71.090 208.270,70.100 207.605,69.000 206.909 C 64.881 204.305,61.531 199.557,60.423 194.752 C 60.177 193.681,60.021 184.141,60.024 170.200 C 60.028 146.893,60.181 144.168,61.626 141.600 C 65.108 135.411,68.492 132.393,74.200 130.385 L 77.000 129.400 136.200 129.200 L 195.400 129.000 195.513 124.033 C 195.585 120.856,195.470 118.910,195.193 118.633 C 194.888 118.328,177.104 118.141,135.080 118.000 L 75.400 117.800 73.298 116.938 C 69.160 115.240,65.444 112.219,63.054 108.607 C 62.474 107.731,62.000 107.243,62.000 107.523 M263.800 129.194 L 323.000 129.404 325.800 130.402 C 333.154 133.024,337.704 137.831,339.427 144.800 C 340.236 148.070,340.237 193.488,339.429 195.800 C 337.909 200.145,332.114 207.600,330.255 207.600 C 329.983 207.600,329.557 207.803,329.308 208.052 C 327.111 210.249,329.947 210.146,264.920 210.383 C 222.175 210.538,205.114 210.725,204.798 211.042 C 204.539 211.301,204.417 212.458,204.503 213.842 L 204.649 216.200 204.724 213.704 L 204.800 211.208 263.900 211.084 C 305.370 210.997,323.477 210.829,324.600 210.519 C 326.980 209.863,328.933 209.063,329.529 208.500 C 329.819 208.225,330.292 208.000,330.580 208.000 C 332.674 208.000,337.954 201.131,339.967 195.789 C 340.296 194.917,340.392 187.517,340.312 169.355 L 340.200 144.133 338.469 140.735 C 336.563 136.994,334.031 134.112,331.228 132.494 C 330.223 131.913,329.310 131.340,329.200 131.219 C 328.914 130.906,326.534 130.026,324.200 129.371 C 322.518 128.899,312.853 128.823,263.400 128.897 L 204.600 128.985 263.800 129.194 M291.322 165.182 C 286.455 168.150,288.706 175.600,294.470 175.600 C 300.096 175.600,302.105 168.299,297.343 165.159 C 295.826 164.159,292.983 164.170,291.322 165.182 M297.037 165.461 C 302.299 168.909,298.135 177.057,292.349 174.636 C 288.561 173.051,288.099 167.610,291.572 165.498 C 292.953 164.658,295.783 164.639,297.037 165.461 M204.482 218.400 C 204.444 219.610,204.561 220.835,204.744 221.123 C 205.014 221.549,215.563 221.639,262.038 221.612 C 319.701 221.579,323.605 221.666,326.800 223.044 C 333.303 225.850,337.608 230.495,339.391 236.629 C 340.287 239.711,340.292 284.789,339.397 287.800 C 337.501 294.175,332.648 299.477,326.775 301.589 C 325.240 302.141,324.900 302.375,325.620 302.386 C 326.181 302.394,326.811 302.250,327.020 302.066 C 327.229 301.882,328.286 301.406,329.368 301.007 C 331.721 300.140,336.505 295.565,337.950 292.800 C 340.486 287.948,340.400 289.013,340.400 262.383 C 340.400 235.691,340.414 235.860,337.930 232.080 C 337.309 231.134,336.800 230.234,336.800 230.080 C 336.799 228.733,330.356 223.787,327.200 222.711 C 322.765 221.199,322.794 221.200,264.094 221.195 C 232.472 221.192,206.203 221.083,205.719 220.953 C 204.966 220.751,204.816 220.386,204.694 218.458 L 204.551 216.200 204.482 218.400 M293.000 256.754 C 288.316 258.358,287.124 263.622,290.751 266.686 C 292.525 268.183,292.588 267.694,290.847 265.953 C 287.629 262.735,289.933 256.800,294.400 256.800 C 299.133 256.800,301.515 265.231,297.171 266.609 C 296.438 266.842,296.066 267.615,296.700 267.587 C 298.029 267.528,300.000 264.330,300.000 262.233 C 300.000 258.558,296.266 255.635,293.000 256.754 M293.500 267.882 C 293.995 267.978,294.805 267.978,295.300 267.882 C 295.795 267.787,295.390 267.709,294.400 267.709 C 293.410 267.709,293.005 267.787,293.500 267.882 M72.624 301.787 C 73.051 302.110,73.850 302.359,74.400 302.341 C 75.215 302.313,75.252 302.272,74.600 302.115 C 74.160 302.009,73.629 301.760,73.420 301.561 C 73.211 301.363,72.772 301.200,72.444 301.200 C 71.997 301.200,72.042 301.347,72.624 301.787 M76.906 303.070 C 77.873 303.420,92.990 303.547,136.700 303.570 L 195.200 303.600 195.200 318.138 C 195.200 334.301,195.425 332.983,192.400 334.517 C 190.247 335.608,187.320 338.553,186.363 340.590 C 185.062 343.357,188.346 343.192,135.017 343.181 C 86.175 343.171,85.959 343.174,84.811 343.992 C 82.855 345.385,82.258 349.342,83.724 351.206 C 85.389 353.323,82.206 353.200,135.332 353.200 L 184.292 353.200 185.387 354.061 C 186.404 354.861,186.472 354.869,186.338 354.171 C 185.991 352.372,186.901 352.403,135.302 352.417 C 105.324 352.425,86.131 352.284,85.698 352.052 C 82.829 350.517,82.619 346.059,85.331 344.282 C 86.297 343.649,89.864 343.600,135.126 343.600 C 184.830 343.600,186.400 343.555,186.400 342.115 C 186.400 340.154,189.277 337.038,193.364 334.572 L 195.400 333.344 195.505 318.489 C 195.606 304.218,195.580 303.617,194.846 303.224 C 194.337 302.952,174.231 302.779,134.846 302.708 C 89.143 302.625,75.907 302.707,76.906 303.070 M263.933 302.797 C 231.667 302.909,205.132 303.135,204.967 303.300 C 204.383 303.884,321.219 303.598,323.000 303.011 C 324.091 302.652,324.282 302.502,323.600 302.539 C 323.050 302.570,296.200 302.686,263.933 302.797 M204.509 305.600 C 204.509 306.590,204.587 306.995,204.682 306.500 C 204.778 306.005,204.778 305.195,204.682 304.700 C 204.587 304.205,204.509 304.610,204.509 305.600 M204.578 320.200 C 204.578 327.020,204.632 329.866,204.699 326.525 C 204.766 323.184,204.766 317.604,204.699 314.125 C 204.633 310.646,204.578 313.380,204.578 320.200 M204.800 333.100 C 204.800 333.333,205.835 334.096,207.100 334.796 C 209.792 336.285,213.154 339.721,213.479 341.314 C 213.973 343.742,210.801 343.600,264.600 343.600 C 318.851 343.600,314.861 343.410,316.231 346.061 C 317.560 348.630,316.003 351.723,313.044 352.390 C 312.255 352.568,289.788 352.723,263.117 352.734 C 217.420 352.753,214.594 352.794,214.112 353.453 C 213.261 354.617,213.536 354.909,214.654 354.029 C 215.707 353.201,215.743 353.200,264.595 353.200 L 313.482 353.200 314.835 352.288 C 317.254 350.658,317.911 347.771,316.420 345.326 C 315.036 343.055,317.598 343.162,264.982 343.191 C 212.118 343.220,214.865 343.345,213.871 340.861 C 213.103 338.943,209.356 335.119,207.538 334.399 C 206.802 334.107,205.885 333.600,205.500 333.272 C 205.115 332.944,204.800 332.867,204.800 333.100 M197.052 343.193 C 192.290 346.239,194.316 353.589,199.920 353.597 C 205.942 353.607,207.881 346.306,202.714 343.078 C 201.306 342.199,198.518 342.255,197.052 343.193 M202.355 343.577 C 208.334 346.627,204.351 354.845,198.000 352.561 C 196.900 352.166,196.000 351.630,196.000 351.370 C 196.000 351.110,195.730 350.674,195.400 350.400 C 194.587 349.726,194.624 346.640,195.460 345.365 C 196.961 343.074,199.883 342.316,202.355 343.577 M186.404 355.440 C 186.374 358.424,193.392 362.964,198.800 363.460 C 204.548 363.987,213.600 359.184,213.600 355.607 C 213.600 355.325,212.877 356.003,211.994 357.113 C 205.594 365.150,193.995 364.813,187.491 356.400 C 186.896 355.630,186.407 355.198,186.404 355.440 " stroke="none" fill="#9c9b9b" fill-rule="evenodd"></path></g></svg>