<?xml version="1.0" standalone="no"?>
<!DOCTYPE svg PUBLIC "-//W3C//DTD SVG 20010904//EN"
 "http://www.w3.org/TR/2001/REC-SVG-20010904/DTD/svg10.dtd">
<svg version="1.0" xmlns="http://www.w3.org/2000/svg"
 width="256.000000pt" height="256.000000pt" viewBox="0 0 256.000000 256.000000"
 preserveAspectRatio="xMidYMid meet">

<g transform="translate(0.000000,256.000000) scale(0.100000,-0.100000)"
fill="#000000" stroke="none">
<path d="M2213 2277 l-103 -112 65 -3 65 -3 0 -164 0 -165 -160 0 -160 0 0 65
0 65 -40 -44 c-22 -24 -40 -53 -40 -65 0 -15 -6 -21 -22 -22 -13 0 -35 -15
-51 -35 l-29 -34 51 0 51 0 0 -165 0 -165 -160 0 -160 0 0 48 -1 47 -75 -80
-75 -80 35 -3 36 -3 0 -165 0 -164 -160 0 -160 0 0 -35 0 -35 160 0 160 0 0
-165 0 -165 -160 0 -160 0 0 -35 0 -35 160 0 160 0 0 -165 0 -165 -160 0 -160
0 0 -35 0 -35 600 0 600 0 0 1115 c0 613 -1 1115 -2 1115 -2 0 -49 -51 -105
-113z m27 -682 l0 -165 -160 0 -160 0 0 165 0 165 160 0 160 0 0 -165z m-400
-400 l0 -165 -160 0 -160 0 0 165 0 165 160 0 160 0 0 -165z m400 0 l0 -165
-160 0 -160 0 0 165 0 165 160 0 160 0 0 -165z m-400 -400 l0 -165 -160 0
-160 0 0 165 0 165 160 0 160 0 0 -165z m400 0 l0 -165 -160 0 -160 0 0 165 0
165 160 0 160 0 0 -165z m-400 -400 l0 -165 -160 0 -160 0 0 165 0 165 160 0
160 0 0 -165z m400 0 l0 -165 -160 0 -160 0 0 165 0 165 160 0 160 0 0 -165z"/>
<path d="M287 202 c-15 -15 -27 -31 -27 -35 0 -4 86 -7 190 -7 l190 0 0 35 0
35 -163 0 -163 0 -27 -28z"/>
</g>
</svg>
