<?xml version="1.0" standalone="no"?>
<!DOCTYPE svg PUBLIC "-//W3C//DTD SVG 20010904//EN"
 "http://www.w3.org/TR/2001/REC-SVG-20010904/DTD/svg10.dtd">
<svg version="1.0" xmlns="http://www.w3.org/2000/svg"
 width="512.000000pt" height="512.000000pt" viewBox="0 0 512.000000 512.000000"
 preserveAspectRatio="xMidYMid meet">

<g transform="translate(0.000000,512.000000) scale(0.100000,-0.100000)"
fill="#000000" stroke="none">
<path d="M2221 4789 c-733 -44 -1362 -243 -1524 -481 -52 -77 -59 -118 -55
-334 3 -175 5 -192 26 -232 128 -240 621 -429 1327 -508 193 -21 724 -30 940
-15 787 55 1376 258 1517 523 22 41 23 52 23 258 0 203 -1 218 -23 261 -172
350 -1190 591 -2231 528z"/>
<path d="M642 3058 c3 -221 4 -235 26 -276 122 -229 586 -417 1227 -496 398
-50 932 -50 1330 0 547 68 993 224 1162 407 85 92 88 102 91 365 2 127 1 232
-2 232 -3 0 -27 -13 -54 -30 -80 -49 -271 -136 -381 -174 -226 -78 -562 -147
-901 -183 -131 -14 -250 -18 -580 -18 -330 0 -449 4 -580 18 -339 36 -675 105
-901 183 -110 38 -301 125 -381 174 -27 17 -51 30 -54 30 -3 0 -4 -105 -2
-232z"/>
<path d="M642 2098 c3 -225 4 -235 28 -281 13 -27 53 -75 87 -107 410 -384
1777 -544 2811 -329 460 95 778 252 877 431 l30 53 3 233 c2 127 1 232 -1 232
-3 0 -36 -19 -73 -42 -281 -170 -730 -291 -1294 -349 -264 -27 -834 -27 -1100
0 -557 57 -1017 181 -1294 349 -37 23 -70 42 -73 42 -2 0 -3 -105 -1 -232z"/>
<path d="M640 1157 c0 -262 6 -290 86 -377 401 -433 1944 -597 3009 -320 386
100 633 238 717 400 22 43 23 57 26 278 2 127 1 232 -1 232 -2 0 -41 -22 -86
-49 -297 -179 -790 -304 -1391 -352 -186 -15 -693 -15 -880 0 -619 49 -1125
181 -1418 367 -29 19 -55 34 -57 34 -3 0 -5 -96 -5 -213z"/>
</g>
</svg>
