<?xml version="1.0" standalone="no"?>
<!DOCTYPE svg PUBLIC "-//W3C//DTD SVG 20010904//EN"
 "http://www.w3.org/TR/2001/REC-SVG-20010904/DTD/svg10.dtd">
<svg version="1.0" xmlns="http://www.w3.org/2000/svg"
 width="218.000000pt" height="232.000000pt" viewBox="0 0 218.000000 232.000000"
 preserveAspectRatio="xMidYMid meet">

<g transform="translate(0.000000,232.000000) scale(0.100000,-0.100000)"
fill="#000000" stroke="none">
<path d="M275 2271 c127 -60 205 -145 246 -269 19 -57 21 -79 16 -167 -10
-182 -43 -301 -241 -880 -41 -121 -84 -266 -95 -322 -26 -126 -28 -298 -5
-366 31 -92 148 -183 211 -166 71 20 113 97 113 208 l0 51 613 0 614 0 6 108
c8 132 37 254 117 487 34 99 91 266 126 372 167 503 152 763 -51 898 -119 79
-72 75 -949 75 l-781 0 60 -29z m1183 -504 c4 -37 41 -55 78 -39 23 11 29 9
55 -17 26 -26 28 -33 18 -54 -9 -21 -8 -30 7 -51 11 -14 29 -26 42 -26 28 0
34 -15 24 -60 -6 -28 -13 -36 -37 -40 -27 -5 -30 -9 -28 -40 0 -19 4 -46 7
-60 5 -20 0 -30 -24 -48 -26 -20 -34 -22 -69 -12 -51 14 -89 -2 -93 -39 -3
-23 -8 -26 -50 -29 -45 -3 -48 -2 -48 22 0 37 -39 61 -74 45 -24 -11 -29 -9
-55 15 -32 31 -47 22 -36 -21 5 -23 9 -25 49 -19 47 7 60 -2 90 -63 21 -45 21
-48 -14 -66 -37 -19 -42 -67 -10 -87 24 -15 25 -26 4 -78 -16 -40 -39 -51 -61
-29 -8 8 -18 6 -37 -6 -28 -19 -32 -35 -16 -66 16 -28 -4 -56 -48 -69 -50 -13
-62 -13 -62 4 0 23 -29 46 -57 46 -18 0 -28 -8 -36 -30 -13 -35 -17 -35 -81
-14 l-48 17 5 43 c6 60 -14 78 -77 69 -42 -7 -47 -5 -56 16 -5 13 -15 32 -22
41 -10 14 -8 20 15 38 15 12 32 30 38 41 12 23 3 59 -15 59 -7 0 -20 6 -29 12
-16 12 -16 16 1 60 10 26 20 50 24 53 3 3 22 -1 41 -9 48 -19 62 -4 54 58 -7
49 3 63 57 82 28 9 35 7 69 -23 47 -42 69 -42 103 1 l27 33 51 -18 c62 -22 82
-10 71 40 -5 24 -12 31 -30 31 -31 0 -47 22 -43 62 3 28 7 34 31 36 35 4 44
25 28 69 -12 33 -12 36 20 69 37 39 45 41 70 18 26 -23 79 -2 79 31 0 31 9 36
55 33 36 -3 40 -6 43 -31z"/>
<path d="M1373 1600 c-44 -18 -57 -86 -23 -120 12 -12 33 -20 55 -20 45 0 75
29 75 73 0 53 -56 88 -107 67z"/>
<path d="M955 1185 c-73 -72 28 -178 109 -114 55 43 18 139 -54 139 -19 0 -40
-9 -55 -25z"/>
<path d="M30 2220 c-15 -37 -9 -144 11 -185 l14 -30 190 -3 c149 -2 187 0 177
10 -6 6 -12 19 -12 28 0 45 -167 159 -289 196 -66 20 -77 18 -91 -16z"/>
<path d="M838 263 l-238 -3 0 -30 c0 -81 -58 -170 -130 -199 -17 -6 235 -10
763 -10 864 -1 817 -4 871 59 27 33 56 115 56 162 l0 28 -542 -2 c-299 -2
-650 -4 -780 -5z"/>
</g>
</svg>
