<?xml version="1.0" standalone="no"?>
<!DOCTYPE svg PUBLIC "-//W3C//DTD SVG 20010904//EN"
 "http://www.w3.org/TR/2001/REC-SVG-20010904/DTD/svg10.dtd">
<svg version="1.0" xmlns="http://www.w3.org/2000/svg"
 width="512.000000pt" height="512.000000pt" viewBox="0 0 512.000000 512.000000"
 preserveAspectRatio="xMidYMid meet">

<g transform="translate(0.000000,512.000000) scale(0.100000,-0.100000)"
fill="#000000" stroke="none">
<path d="M414 4790 c-107 -14 -216 -71 -285 -147 -48 -53 -73 -97 -101 -173
l-23 -65 0 -1845 0 -1845 23 -65 c55 -153 149 -247 302 -302 l65 -23 2160 0
2160 0 71 22 c141 45 262 166 307 307 l22 71 0 1840 0 1840 -23 65 c-13 36
-33 81 -45 100 -56 92 -157 169 -267 206 -53 18 -143 19 -2180 20 -1169 1
-2153 -2 -2186 -6z m1026 -1350 l0 -400 -560 0 -560 0 0 400 0 400 560 0 560
0 0 -400z m1120 0 l0 -400 -480 0 -480 0 0 400 0 400 480 0 480 0 0 -400z
m1120 0 l0 -400 -480 0 -480 0 0 400 0 400 480 0 480 0 0 -400z m1120 0 l0
-400 -480 0 -480 0 0 400 0 400 480 0 480 0 0 -400z m-3360 -880 l0 -320 -560
0 -560 0 0 320 0 320 560 0 560 0 0 -320z m1120 0 l0 -320 -480 0 -480 0 0
320 0 320 480 0 480 0 0 -320z m1120 0 l0 -320 -480 0 -480 0 0 320 0 320 480
0 480 0 0 -320z m1120 0 l0 -320 -480 0 -480 0 0 320 0 320 480 0 480 0 0
-320z m-3360 -800 l0 -320 -560 0 -560 0 0 320 0 320 560 0 560 0 0 -320z
m1120 0 l0 -320 -480 0 -480 0 0 320 0 320 480 0 480 0 0 -320z m1120 0 l0
-320 -480 0 -480 0 0 320 0 320 480 0 480 0 0 -320z m1120 0 l0 -320 -480 0
-480 0 0 320 0 320 480 0 480 0 0 -320z m-3360 -800 l0 -320 -560 0 -560 0 0
320 0 320 560 0 560 0 0 -320z m1120 0 l0 -320 -480 0 -480 0 0 320 0 320 480
0 480 0 0 -320z m1120 0 l0 -320 -480 0 -480 0 0 320 0 320 480 0 480 0 0
-320z m1120 0 l0 -320 -480 0 -480 0 0 320 0 320 480 0 480 0 0 -320z"/>
</g>
</svg>
