<?xml version="1.0" standalone="no"?>
<!DOCTYPE svg PUBLIC "-//W3C//DTD SVG 20010904//EN"
 "http://www.w3.org/TR/2001/REC-SVG-20010904/DTD/svg10.dtd">
<svg version="1.0" xmlns="http://www.w3.org/2000/svg"
 width="512.000000pt" height="512.000000pt" viewBox="0 0 512.000000 512.000000"
 preserveAspectRatio="xMidYMid meet">

<g transform="translate(0.000000,512.000000) scale(0.100000,-0.100000)"
fill="#000000" stroke="none">
<path d="M30 3045 l0 -1425 630 0 630 0 0 320 0 320 1058 -2 1057 -3 3 -56 3
-57 47 -7 c26 -4 69 -16 97 -26 27 -10 51 -19 53 -19 1 0 2 535 2 1190 l0
1190 -1790 0 -1790 0 0 -1425z m1158 582 l2 -217 -477 2 -478 3 -3 205 c-1
112 0 210 3 217 3 11 99 13 477 11 l473 -3 3 -218z m1160 1 l2 -218 -530 0
-530 0 0 213 c0 118 3 217 7 220 3 4 241 6 527 5 l521 -3 3 -217z m1060 0 l2
-218 -480 0 -480 0 0 213 c0 118 3 217 7 220 3 4 218 6 477 5 l471 -3 3 -217z
m-2218 -533 l0 -215 -477 2 -478 3 -3 213 -2 212 480 0 480 0 0 -215z m1160 0
l0 -215 -530 0 -530 0 0 215 0 215 530 0 530 0 0 -215z m1058 3 l-3 -213 -477
-3 -478 -2 0 215 0 215 480 0 480 0 -2 -212z m-2218 -528 l0 -210 -480 0 -480
0 0 210 0 210 480 0 480 0 0 -210z m1160 0 l0 -210 -530 0 -530 0 0 210 0 210
530 0 530 0 0 -210z m1060 0 l0 -210 -480 0 -480 0 0 210 0 210 480 0 480 0 0
-210z m-2220 -525 l0 -215 -480 0 -480 0 0 208 c0 115 3 212 7 215 3 4 219 7
480 7 l473 0 0 -215z"/>
<path d="M2315 2033 c-67 -9 -152 -36 -216 -69 l-69 -34 -260 0 -260 0 0 -100
0 -100 160 0 161 0 -25 -42 c-43 -75 -77 -195 -83 -293 -19 -325 197 -617 518
-700 80 -21 244 -21 324 0 185 47 363 190 443 355 58 121 75 200 70 335 -4 87
-11 126 -32 185 -42 118 -43 111 6 161 77 79 185 114 303 98 67 -9 127 -38
178 -87 57 -55 60 -64 37 -117 -36 -84 -52 -166 -51 -270 1 -272 146 -499 396
-616 97 -45 172 -61 284 -61 312 1 577 207 658 512 20 79 23 242 4 320 -7 30
-31 92 -52 138 l-38 82 160 0 159 0 0 100 0 100 -264 0 c-264 0 -264 0 -307
25 -68 39 -187 73 -280 80 -94 7 -194 -8 -292 -45 -70 -26 -188 -104 -241
-159 l-39 -40 -34 29 c-166 146 -500 146 -667 0 l-34 -30 -58 55 c-148 143
-363 215 -559 188z m225 -220 c75 -20 160 -74 215 -135 236 -262 123 -675
-213 -778 -122 -38 -282 -20 -385 43 -163 99 -260 306 -228 485 53 294 322
464 611 385z m1780 6 c171 -39 326 -215 349 -395 21 -166 -33 -312 -155 -423
-186 -170 -475 -162 -655 18 -180 180 -188 469 -18 655 125 137 290 187 479
145z"/>
</g>
</svg>
